<svg width="64" height="64" viewBox="0 0 64 64" fill="none" xmlns="http://www.w3.org/2000/svg">
<g filter="url(#filter0_d_0_31)">
<path d="M57.0812 24.9667V51.3333C57.0812 52.5778 56.6633 53.6667 55.8274 54.6C54.9916 55.5333 54.0164 56 52.9019 56H11.0387C9.92423 56 8.94905 55.5333 8.11318 54.6C7.27731 53.6667 6.85937 52.5778 6.85937 51.3333V24.9667C5.55913 23.7222 4.70004 22.1926 4.28211 20.3778C3.86417 18.563 3.91061 16.7481 4.42142 14.9333L7.41662 4.43333C7.78812 3.03333 8.43824 1.94444 9.36698 1.16667C10.2957 0.388889 11.3638 0 12.5712 0H51.0908C52.3911 0 53.5288 0.401852 54.504 1.20556C55.4792 2.00926 56.1525 3.08519 56.524 4.43333L59.5889 14.9333C60.0997 16.7481 60.1345 18.563 59.6933 20.3778C59.2522 22.1926 58.3815 23.7222 57.0812 24.9667ZM38.2742 22.5556C39.6208 22.5556 40.7586 22.063 41.6873 21.0778C42.616 20.0926 42.9875 18.9 42.8018 17.5L41.0604 4.66667H34.0948V17.5C34.0948 18.8481 34.4895 20.0278 35.279 21.0389C36.0684 22.05 37.0668 22.5556 38.2742 22.5556ZM25.2485 22.5556C26.5488 22.5556 27.6516 22.063 28.5572 21.0778C29.4627 20.0926 29.9155 18.9 29.9155 17.5V4.66667H22.9499L21.2085 17.5C21.0227 18.8481 21.3478 20.0278 22.1837 21.0389C23.0195 22.05 24.0412 22.5556 25.2485 22.5556ZM12.5712 22.5556C13.6856 22.5556 14.6492 22.1278 15.4619 21.2722C16.2745 20.4167 16.7505 19.3667 16.8898 18.1222L18.7009 4.66667H11.7353L8.53111 16.0222C8.06674 17.6296 8.25249 19.1204 9.08836 20.4944C9.92423 21.8685 11.0852 22.5556 12.5712 22.5556ZM51.3695 22.5556C52.8555 22.5556 54.028 21.8815 54.8871 20.5333C55.7462 19.1852 55.9435 17.6815 55.4792 16.0222L52.275 4.66667H45.3094L47.1205 18.1222C47.2598 19.3667 47.7358 20.4167 48.5484 21.2722C49.3611 22.1278 50.3014 22.5556 51.3695 22.5556ZM11.0387 51.3333H52.9019V27.1444C52.9483 27.1963 52.7974 27.2222 52.4491 27.2222C52.1009 27.2222 51.741 27.2222 51.3695 27.2222C50.2085 27.2222 49.1057 26.95 48.0608 26.4056C47.016 25.8611 45.9827 25.0185 44.9611 23.8778C44.2181 24.9148 43.2894 25.7315 42.1749 26.3278C41.0604 26.9241 39.8298 27.2222 38.4831 27.2222C37.09 27.2222 35.8943 27.0019 34.8959 26.5611C33.8975 26.1204 32.9339 25.3815 32.0051 24.3444C31.3086 25.2778 30.4263 25.9907 29.3582 26.4833C28.2902 26.9759 27.0828 27.2222 25.7361 27.2222C24.2966 27.2222 23.0195 26.937 21.905 26.3667C20.7905 25.7963 19.8386 24.9667 19.0491 23.8778C17.9347 24.9667 16.8434 25.7963 15.7753 26.3667C14.7073 26.937 13.6392 27.2222 12.5712 27.2222C12.2461 27.2222 11.9326 27.2222 11.6308 27.2222C11.329 27.2222 11.1316 27.1963 11.0387 27.1444V51.3333ZM52.9019 51.3333H11.0387C11.1316 51.3333 11.329 51.3333 11.6308 51.3333C11.9326 51.3333 12.2461 51.3333 12.5712 51.3333C13.3606 51.3333 14.3009 51.3333 15.3922 51.3333C16.4835 51.3333 17.7025 51.3333 19.0491 51.3333C19.4671 51.3333 19.9315 51.3333 20.4423 51.3333C20.9531 51.3333 21.4987 51.3333 22.0792 51.3333C22.6596 51.3333 23.2517 51.3333 23.8554 51.3333C24.4591 51.3333 25.086 51.3333 25.7361 51.3333C26.2469 51.3333 26.781 51.3333 27.3382 51.3333C27.8954 51.3333 28.4527 51.3333 29.0099 51.3333C29.5672 51.3333 30.1012 51.3333 30.612 51.3333C31.1228 51.3333 31.5872 51.3333 32.0051 51.3333C33.0268 51.3333 34.0484 51.3333 35.07 51.3333C36.0916 51.3333 37.2293 51.3333 38.4831 51.3333C39.1333 51.3333 39.7718 51.3333 40.3987 51.3333C41.0256 51.3333 41.6176 51.3333 42.1749 51.3333C42.7321 51.3333 43.243 51.3333 43.7073 51.3333C44.1717 51.3333 44.5896 51.3333 44.9611 51.3333C46.0292 51.3333 47.0972 51.3333 48.1653 51.3333C49.2334 51.3333 50.3014 51.3333 51.3695 51.3333C51.741 51.3333 52.1009 51.3333 52.4491 51.3333C52.7974 51.3333 52.9483 51.3333 52.9019 51.3333Z" fill="#136274"/>
</g>
<defs>
<filter id="filter0_d_0_31" x="0" y="0" width="64" height="64" filterUnits="userSpaceOnUse" color-interpolation-filters="sRGB">
<feFlood flood-opacity="0" result="BackgroundImageFix"/>
<feColorMatrix in="SourceAlpha" type="matrix" values="0 0 0 0 0 0 0 0 0 0 0 0 0 0 0 0 0 0 127 0" result="hardAlpha"/>
<feOffset dy="4"/>
<feGaussianBlur stdDeviation="2"/>
<feComposite in2="hardAlpha" operator="out"/>
<feColorMatrix type="matrix" values="0 0 0 0 0 0 0 0 0 0 0 0 0 0 0 0 0 0 0.25 0"/>
<feBlend mode="normal" in2="BackgroundImageFix" result="effect1_dropShadow_0_31"/>
<feBlend mode="normal" in="SourceGraphic" in2="effect1_dropShadow_0_31" result="shape"/>
</filter>
</defs>
</svg>
