<svg width="61" height="64" viewBox="0 0 61 64" fill="none" xmlns="http://www.w3.org/2000/svg">
<g filter="url(#filter0_d_0_53)">
<path d="M14.5263 45.3333C13.9123 45.3333 13.375 45.1 12.9145 44.6333C12.4539 44.1667 12.2237 43.6222 12.2237 43C12.2237 42.3778 12.4539 41.8333 12.9145 41.3667C13.375 40.9 13.9123 40.6667 14.5263 40.6667C15.1404 40.6667 15.6776 40.9 16.1382 41.3667C16.5987 41.8333 16.8289 42.3778 16.8289 43C16.8289 43.6222 16.5987 44.1667 16.1382 44.6333C15.6776 45.1 15.1404 45.3333 14.5263 45.3333ZM46.1053 45.3333C45.4912 45.3333 44.9539 45.1 44.4934 44.6333C44.0329 44.1667 43.8026 43.6222 43.8026 43C43.8026 42.3778 44.0329 41.8333 44.4934 41.3667C44.9539 40.9 45.4912 40.6667 46.1053 40.6667C46.7193 40.6667 47.2566 40.9 47.7171 41.3667C48.1776 41.8333 48.4079 42.3778 48.4079 43C48.4079 43.6222 48.1776 44.1667 47.7171 44.6333C47.2566 45.1 46.7193 45.3333 46.1053 45.3333ZM22.4211 56C21.807 56 21.2697 55.7667 20.8092 55.3C20.3487 54.8333 20.1184 54.2889 20.1184 53.6667C20.1184 53.0444 20.3487 52.5 20.8092 52.0333C21.2697 51.5667 21.807 51.3333 22.4211 51.3333C23.0351 51.3333 23.5724 51.5667 24.0329 52.0333C24.4934 52.5 24.7237 53.0444 24.7237 53.6667C24.7237 54.2889 24.4934 54.8333 24.0329 55.3C23.5724 55.7667 23.0351 56 22.4211 56ZM30.3158 45.3333C29.7018 45.3333 29.1645 45.1 28.7039 44.6333C28.2434 44.1667 28.0132 43.6222 28.0132 43C28.0132 42.3778 28.2434 41.8333 28.7039 41.3667C29.1645 40.9 29.7018 40.6667 30.3158 40.6667C30.9298 40.6667 31.4671 40.9 31.9276 41.3667C32.3882 41.8333 32.6184 42.3778 32.6184 43C32.6184 43.6222 32.3882 44.1667 31.9276 44.6333C31.4671 45.1 30.9298 45.3333 30.3158 45.3333ZM38.2105 56C37.5965 56 37.0592 55.7667 36.5987 55.3C36.1382 54.8333 35.9079 54.2889 35.9079 53.6667C35.9079 53.0444 36.1382 52.5 36.5987 52.0333C37.0592 51.5667 37.5965 51.3333 38.2105 51.3333C38.8246 51.3333 39.3618 51.5667 39.8224 52.0333C40.2829 52.5 40.5132 53.0444 40.5132 53.6667C40.5132 54.2889 40.2829 54.8333 39.8224 55.3C39.3618 55.7667 38.8246 56 38.2105 56ZM17.8158 36C14 36 10.7434 34.6333 8.04605 31.9C5.34868 29.1667 4 25.8667 4 22C4 18.4889 5.23903 15.3556 7.7171 12.6C10.1952 9.84444 13.2763 8.33333 16.9605 8.06667C18.364 5.57778 20.2171 3.61111 22.5197 2.16667C24.8224 0.722222 27.4211 0 30.3158 0C34.307 0 37.6513 1.27778 40.3487 3.83333C43.0461 6.38889 44.7018 9.55556 45.3158 13.3333C48.7807 13.5111 51.5329 14.7 53.5724 16.9C55.6118 19.1 56.6316 21.6889 56.6316 24.6667C56.6316 27.7778 55.5461 30.4444 53.375 32.6667C51.2039 34.8889 48.5614 36 45.4474 36H17.8158ZM17.8158 32H45.4474C47.4649 32 49.1754 31.2778 50.5789 29.8333C51.9825 28.3889 52.6842 26.6444 52.6842 24.6C52.6842 22.6 51.9825 20.8889 50.5789 19.4667C49.1754 18.0444 47.4649 17.3333 45.4474 17.3333H41.5V15.3333C41.5 12.1778 40.4145 9.5 38.2434 7.3C36.0724 5.1 33.4298 4 30.3158 4C28.0789 4 26.0285 4.61111 24.1645 5.83333C22.3004 7.05556 20.9298 8.71111 20.0526 10.8L19.5263 12H17.6842C14.9649 12.0889 12.6623 13.1 10.7763 15.0333C8.89035 16.9667 7.94737 19.2889 7.94737 22C7.94737 24.7556 8.91228 27.1111 10.8421 29.0667C12.7719 31.0222 15.0965 32 17.8158 32Z" fill="#F523D1"/>
</g>
<defs>
<filter id="filter0_d_0_53" x="0" y="0" width="60.6316" height="64" filterUnits="userSpaceOnUse" color-interpolation-filters="sRGB">
<feFlood flood-opacity="0" result="BackgroundImageFix"/>
<feColorMatrix in="SourceAlpha" type="matrix" values="0 0 0 0 0 0 0 0 0 0 0 0 0 0 0 0 0 0 127 0" result="hardAlpha"/>
<feOffset dy="4"/>
<feGaussianBlur stdDeviation="2"/>
<feComposite in2="hardAlpha" operator="out"/>
<feColorMatrix type="matrix" values="0 0 0 0 0 0 0 0 0 0 0 0 0 0 0 0 0 0 0.25 0"/>
<feBlend mode="normal" in2="BackgroundImageFix" result="effect1_dropShadow_0_53"/>
<feBlend mode="normal" in="SourceGraphic" in2="effect1_dropShadow_0_53" result="shape"/>
</filter>
</defs>
</svg>
